# xmcd
#
# Track frame offsets: 
#        150
#        18224
#        43878
#        67509
#        90780
#        121205
#        133465
#        154401
#        184890
#        211508
#        241434
#        259504
#
# Disc length: 3618 seconds
#
# Revision: 2
# Processed by: cddbd v1.5.2PL0 Copyright (c) Steve Scherf et al.
# Submitted via: ExactAudioCopy v0.99pb5
#
DISCID=970e200c
DTITLE=Kapela Przyjaciela - Juz ide !
DYEAR=2007
DGENRE=Blues
TTITLE0=Toba chce oddychac
TTITLE1=To jest Dyzio
TTITLE2=Hymn o milosci
TTITLE3=Dalejze chodzcie i kupujcie !
TTITLE4=Budzika krzyk
TTITLE5=Piosenka dla ciulacza
TTITLE6=Pan szczesciem darzy tych...
TTITLE7=Kasyno Rzym
TTITLE8=Ulice zycia
TTITLE9=Oczy Matki
TTITLE10=Juz ide !
TTITLE11=Razu pewnego...
EXTD=YEAR: 2007
EXTT0=
EXTT1=
EXTT2=
EXTT3=
EXTT4=
EXTT5=
EXTT6=
EXTT7=
EXTT8=
EXTT9=
EXTT10=
EXTT11=
PLAYORDER=
